<?xml version="1.0" encoding="UTF-8"?>
<svg id="Layer_1" data-name="Layer 1" xmlns="http://www.w3.org/2000/svg" version="1.1" viewBox="0 0 500 500">
  <defs>
    <style>
      .cls-1 {
        fill: none;
        stroke: #ce7;
        stroke-linecap: round;
        stroke-linejoin: round;
        stroke-width: 10px;
      }
    </style>
  </defs>
  <path class="cls-1" d="M122.7,440.3c24.5-4.6,49.1-10.1,70.8-22.2,24.4-13.7,44.8-37.7,46.6-65.6,1.9-31.1-19.2-59.3-44.1-78-24.8-18.8-54-31.2-78.9-49.8-11.2-8.4-22.2-19.4-23.4-33.4-1.7-19.5,16.7-35.3,35.5-40.8,18.7-5.5,38.9-4.3,57.8-9.4s37.9-19.6,37.7-39.2c0-7-2.7-10.1-1.2-18.2,2.1-11.3,10.7-19.2,17.4-24"/>
  <path class="cls-1" d="M260.3,61.8c-7.2,13.1-6.6,21.5-4.7,26.8,3.4,9.1,9.4,11.2,21.1,21.9,7.5,6.9,14.3,16.6,12.2,26.6-3.7,16.9-27,18.9-40.6,29.6-19.7,15.6-14.7,48.3,2,67.1,16.6,18.7,41,28.3,62.3,41.5,56.1,34.7,91.7,99.3,93.8,164.9"/>
</svg>