<?xml version="1.0" encoding="UTF-8"?>
<svg id="Layer_1" data-name="Layer 1" xmlns="http://www.w3.org/2000/svg" viewBox="0 0 500 500">
  <defs>
    <style>
      .cls-1 {
        fill: #ce7;
        stroke-width: 0px;
      }
    </style>
  </defs>
  <path class="cls-1" d="M490.37,354.58h-197.61c-3.32,0-6.01-2.69-6.01-6.01s2.69-6.01,6.01-6.01h190.06c-.89-3.61-1.86-7.14-2.89-10.57-.59-1.97-1.1-3.74-1.6-5.49-1.39-4.85-2.7-9.43-5.65-17.69-1.63-4.61-2.93-9.47-3.97-14.86-1.42-7.32-1.55-12.47-1.65-16.23-.13-4.96-.18-7.01-2.5-10.68-1.85-2.91-3.38-4.02-5.91-5.85-2.98-2.16-6.69-4.85-11.48-10.96-4.39-5.61-6.25-9.13-7.75-11.95-1.24-2.34-2.22-4.19-4.51-7.01-4.74-5.8-12.24-6.55-16.73-7-.62-.06-1.17-.12-1.64-.18-9.23-1.17-16.85,1.16-21.61,3.32-1.41.64-3.01.71-4.47.2l-.81-.28c-.58-.2-1.13-.5-1.63-.87-2.41-1.81-5.51-4.48-8.1-9.13-4.35-7.84-3.61-14.56-3.01-19.96.53-4.77.73-7.63-1.23-10.9-1.7-2.84-3.42-3.53-8.61-5.28-3.68-1.24-8.27-2.78-13.94-5.97-13.26-7.46-18-17.39-21.46-24.65-3.69-7.74-5.07-10.63-13.4-10.29-5.83.24-6.81,1.69-9.73,6-2.8,4.14-6.64,9.82-15.75,14.91-8.88,4.97-18.91,7.94-29.8,8.83-2.05.17-4.09-.74-5.32-2.4-1.78-2.38-3.75-4.23-6.03-5.65-3.15-1.96-5.73-2.2-9.64-2.57-4.73-.44-10.61-1-18.56-4.95-3.56-1.78-6.64-4.01-9.63-6.18-3.46-2.51-6.73-4.88-10.22-6.12-11.13-3.95-23.79,4.17-30.05,13.81-6.16,9.47-8.73,20.83-11.45,32.85-.49,2.17-.98,4.34-1.5,6.49-3.46,14.52-8.73,30.8-21.64,41.41-6.56,5.4-14.17,8.53-21.52,11.55-5.31,2.18-10.33,4.25-14.8,7.06-7.65,4.83-13.83,11.94-20.36,19.47-8.59,9.89-17.46,20.11-30.31,25.35-2.54,1.04-5.1,1.82-7.57,2.57-3.13.95-6.09,1.85-8.66,3.18-1.45.81-6.18,4.99-6.24,8.59-.05,3.33,3.81,7.26,11.47,11.69l.14.08c1.9,1.1,3.99,2.03,6.03,2.69,3.16,1.03,4.88,4.42,3.86,7.58s-4.42,4.88-7.58,3.86c-2.86-.93-5.66-2.18-8.32-3.71l-.15-.09c-4.83-2.79-17.66-10.21-17.48-22.28.15-10.4,10.07-17.7,12.71-19.09,3.57-1.85,7.2-2.95,10.71-4.01,2.31-.7,4.49-1.36,6.52-2.2,10.2-4.16,17.76-12.87,25.78-22.1,6.82-7.85,13.87-15.97,23.03-21.75,5.35-3.37,11.09-5.73,16.64-8.01,6.83-2.81,13.29-5.46,18.46-9.71,10.15-8.35,14.58-22.33,17.57-34.91.5-2.11.98-4.23,1.47-6.36,2.84-12.52,5.77-25.47,13.1-36.74,8.99-13.84,27.05-24.68,44.16-18.59,5.13,1.82,9.26,4.82,13.26,7.72,2.71,1.96,5.26,3.82,7.93,5.15,5.94,2.95,10.01,3.34,14.32,3.74,4.58.43,9.31.88,14.88,4.34,2.58,1.61,4.94,3.61,7.06,5.95,7.97-1.01,15.31-3.37,21.85-7.03,6.62-3.7,9.18-7.49,11.66-11.15,3.42-5.06,7.3-10.79,19.2-11.28,16.27-.68,20.77,8.79,24.75,17.13,3.23,6.76,6.56,13.75,16.5,19.34,4.68,2.63,8.51,3.92,11.88,5.05,5.67,1.91,11.03,3.71,15.09,10.5,4.13,6.91,3.43,13.28,2.86,18.4-.51,4.64-.92,8.31,1.57,12.8.85,1.52,1.75,2.66,2.75,3.63,6.16-2.31,14.76-4.24,24.87-2.96.38.05.82.09,1.32.14,5.07.51,16.95,1.71,24.84,11.36,3.05,3.75,4.47,6.41,5.83,8.99,1.4,2.65,2.85,5.39,6.58,10.16,3.75,4.78,6.45,6.74,9.07,8.64,2.91,2.11,5.92,4.29,9.01,9.15,4.11,6.49,4.23,11.27,4.37,16.81.1,3.71.2,7.91,1.43,14.26.93,4.8,2.07,9.09,3.5,13.11,3.07,8.62,4.5,13.59,5.88,18.41.49,1.71.98,3.43,1.56,5.33,1.82,6.01,3.44,12.34,4.8,18.81.37,1.77-.07,3.62-1.21,5.03-1.14,1.41-2.86,2.23-4.67,2.23Z"/>
  <path class="cls-1" d="M297.8,371.79H9.63c-1.96,0-3.79-.95-4.92-2.56s-1.4-3.65-.74-5.5c5.36-14.89,13.29-26.58,20.19-29.77,3.12-1.43,5.6-2.07,5.87-2.13,1.97-.48,3.64-.65,5.11-.8,2.18-.22,4.06-.41,7.22-1.67,4.95-1.98,7.33-4.35,10.61-7.62,2.69-2.69,5.75-5.73,10.63-9.04,6.72-4.55,11.31-5.8,15.76-7,2.75-.75,5.34-1.45,8.72-3.05,10.05-4.76,13.64-11.09,18.18-19.1,4.36-7.69,9.29-16.4,20.53-24.49,6.79-4.89,30.47-20.16,50.09-11.49,9.2,4.07,13.11,11.51,16.56,18.08,3.4,6.47,6.61,12.59,14.92,16.53,3.99,1.89,6.75,2.2,9.96,2.56,4.37.49,9.32,1.05,15.86,5.62,6.71,4.67,9.19,9.41,11.38,13.58,1.79,3.41,3.33,6.35,7.49,9.68,4.41,3.53,7.48,4.13,11.73,4.97,4.51.89,10.13,1.99,17.32,6.91,11.99,8.17,17.68,22.41,20.35,32.91.55,2.16.98,4.34,1.3,6.47.26,1.73-.25,3.48-1.4,4.81-1.14,1.32-2.8,2.08-4.55,2.08ZM18.63,359.76h271.73c-2-7.15-6.37-18.41-15.04-24.31-5.16-3.53-8.73-4.23-12.87-5.04-4.79-.94-10.22-2.01-16.93-7.38-6.12-4.91-8.61-9.66-10.62-13.48-1.92-3.66-3.31-6.31-7.62-9.31-4.04-2.82-6.54-3.11-10.32-3.53-3.55-.4-7.97-.9-13.76-3.65-11.94-5.67-16.64-14.62-20.42-21.81-3.02-5.75-5.41-10.3-10.77-12.67-10.95-4.84-27.42,2.5-38.2,10.25-9.1,6.55-12.98,13.4-17.09,20.65-4.92,8.68-10.01,17.66-23.5,24.05-4.34,2.05-7.72,2.97-10.71,3.78-3.97,1.08-7.1,1.93-12.16,5.35-3.94,2.67-6.46,5.18-8.89,7.6-3.64,3.62-7.4,7.37-14.64,10.27-4.74,1.9-7.93,2.21-10.5,2.47-1.28.13-2.29.23-3.42.51h0s-1.65.43-3.72,1.38c-1.86.86-6.3,5.92-10.56,14.87Z"/>
</svg>