<?xml version="1.0" encoding="UTF-8"?>
<svg id="Camada_1" data-name="Camada 1" xmlns="http://www.w3.org/2000/svg" viewBox="0 0 500 500">
  <defs>
    <style>
      .cls-1 {
        fill: #183038;
      }

      .cls-1, .cls-2 {
        stroke-width: 0px;
      }

      .cls-2 {
        fill: #fff;
      }
    </style>
  </defs>
  <circle id="Elipse_61" data-name="Elipse 61" class="cls-1" cx="250" cy="250" r="250"/>
  <path id="Caminho_193" data-name="Caminho 193" class="cls-2" d="M363.42,346.19c-.18,25.83-21.27,46.62-47.1,46.44-25.61-.1-46.34-20.84-46.44-46.44.2-6.99,1.75-13.88,4.57-20.27l-68.68-50.36c-7.33,8.13-17.83,12.66-28.77,12.43-21.59.45-39.45-16.69-39.9-38.28,0-.32,0-.64,0-.96-.08-21.59,17.35-39.16,38.94-39.25.32,0,.64,0,.96,0,10.54.13,20.63,4.36,28.12,11.77l69.35-50.36c-3.2-6.03-4.77-12.79-4.57-19.62.1-25.61,20.83-46.34,46.44-46.44,25.61.1,46.35,20.83,46.44,46.44-.1,25.61-20.83,46.35-46.44,46.44-13.29.07-25.96-5.66-34.68-15.69l-69.35,50.36c2.53,5.08,3.87,10.67,3.93,16.35-.39,5.57-1.49,11.06-3.27,16.35l69.99,49.06c8.7-9.13,20.74-14.33,33.35-14.39,25.82-.18,46.91,20.6,47.1,46.42ZM282.97,151.28c-.16,18.26,14.51,33.19,32.77,33.35.19,0,.39,0,.58,0,18.39-.07,33.28-14.96,33.36-33.35-.08-18.39-14.97-33.28-33.36-33.35-18.26-.16-33.19,14.51-33.35,32.77,0,.19,0,.39,0,.58h0ZM350.34,346.19c-.15-18.58-15.34-33.51-33.92-33.36-.03,0-.07,0-.1,0-18.39.08-33.27,14.97-33.35,33.35.08,18.39,14.96,33.28,33.35,33.36,18.58.21,33.81-14.69,34.02-33.27,0-.03,0-.06,0-.09h0Z"/>
</svg>