<?xml version="1.0" encoding="UTF-8"?>
<svg id="Layer_1" data-name="Layer 1" xmlns="http://www.w3.org/2000/svg" viewBox="0 0 500 500">
  <defs>
    <style>
      .cls-1 {
        fill: #ce7;
        stroke-width: 0px;
      }
    </style>
  </defs>
  <path class="cls-1" d="M260.4,438.29c-.65,0-1.31-.11-1.96-.33-3.14-1.08-4.81-4.51-3.72-7.65,21.46-62.24,23.17-116,5.09-159.8-5.9-14.29-13.1-25.74-20.73-37.86-10.52-16.72-22.45-35.67-32.4-65.18-10.72-31.77-15.84-65.64-15.22-100.68.06-3.32,2.8-6.01,6.12-5.91,3.32.06,5.96,2.8,5.91,6.12-.6,33.65,4.31,66.16,14.59,96.62,9.5,28.15,20.52,45.67,31.18,62.62,7.9,12.56,15.37,24.43,21.66,39.67,19.23,46.59,17.6,103.21-4.84,168.31-.86,2.49-3.19,4.06-5.68,4.06Z"/>
  <path class="cls-1" d="M241.62,231.41c-2.48,0-4.81-1.55-5.67-4.02-1.1-3.13.55-6.57,3.68-7.67,10.23-3.59,61.95-24.1,75.98-75.52,4.18-15.33,4.5-31.48.94-47.99-.7-3.25,1.36-6.45,4.61-7.15,3.24-.7,6.45,1.37,7.14,4.61,3.97,18.42,3.6,36.48-1.09,53.69-15.61,57.22-72.38,79.76-83.6,83.7-.66.23-1.33.34-1.99.34Z"/>
  <path class="cls-1" d="M278.27,342.96c-3,0-5.6-2.25-5.96-5.3-.39-3.3,1.96-6.29,5.26-6.68,17.95-2.13,52.36-10.16,81.22-39.9,34.91-35.98,38.17-79.4,37.96-96.4-.04-3.32,2.62-6.05,5.94-6.09,3.37-.05,6.05,2.62,6.09,5.94.23,18.49-3.33,65.74-41.35,104.93-31.45,32.41-68.9,41.15-88.43,43.47-.24.03-.48.04-.72.04Z"/>
  <path class="cls-1" d="M260.4,438.29c-3.12,0-5.75-2.4-5.99-5.56-3.92-52.01-19.47-93.13-46.22-122.21-13.97-15.19-28.11-24.13-41.79-32.77-16.68-10.55-33.94-21.45-49.2-43.08-19.95-28.29-29.22-64.09-27.53-106.4.13-3.32,2.88-5.89,6.25-5.77,3.32.13,5.9,2.93,5.77,6.25-1.58,39.61,6.95,72.92,25.34,98.99,13.88,19.67,29.38,29.47,45.79,39.85,14.34,9.06,29.17,18.43,44.22,34.79,28.63,31.12,45.24,74.68,49.36,129.45.25,3.31-2.23,6.2-5.55,6.45-.15.01-.31.02-.46.02Z"/>
  <path class="cls-1" d="M171.06,307.61c-27.72,0-66.43-6.42-95.01-36.69-14.11-14.94-24.12-34.2-28.95-55.68-.73-3.24,1.31-6.46,4.55-7.19,3.25-.73,6.46,1.31,7.19,4.55,4.36,19.38,13.34,36.69,25.96,50.07,43.9,46.51,115.32,30.47,118.34,29.76,3.24-.75,6.47,1.25,7.22,4.49.76,3.23-1.25,6.47-4.49,7.22-1.36.32-15.39,3.47-34.82,3.47Z"/>
  <path class="cls-1" d="M296.65,195.52c-1.72,0-3.43-.73-4.62-2.16-10.86-12.99-24.71-34.58-29.01-63.69-1.76-11.94-1.76-24.13,0-36.24.48-3.29,3.53-5.57,6.82-5.09,3.29.48,5.56,3.53,5.09,6.82-1.59,10.95-1.59,21.97,0,32.75,3.89,26.33,16.47,45.93,26.34,57.73,2.13,2.55,1.79,6.34-.76,8.47-1.13.94-2.49,1.4-3.85,1.4Z"/>
  <path class="cls-1" d="M371.17,292.18c-1.33,0-2.68-.44-3.79-1.35-7.47-6.08-17.56-16.63-23.21-32.4-2.25-6.27-3.6-12.87-4.04-19.6-.21-3.31,2.3-6.17,5.62-6.39,3.32-.21,6.17,2.3,6.39,5.62.36,5.61,1.49,11.1,3.36,16.32,4.71,13.16,13.19,22.01,19.48,27.12,2.58,2.1,2.97,5.88.87,8.46-1.19,1.46-2.92,2.22-4.67,2.22Z"/>
  <path class="cls-1" d="M390.66,259.93c-2.78,0-5.28-1.94-5.88-4.77-.69-3.25,1.39-6.44,4.64-7.13,10.05-2.12,28.82-8.36,41.61-26.28,4.8-6.73,8.21-14.36,10.13-22.68.75-3.24,3.97-5.26,7.21-4.51,3.24.75,5.26,3.97,4.51,7.21-2.28,9.87-6.33,18.95-12.06,26.97-15.16,21.24-37.16,28.58-48.92,31.07-.42.09-.84.13-1.25.13Z"/>
  <path class="cls-1" d="M114.58,225.19c-1.71,0-3.4-.72-4.59-2.12-2.15-2.53-1.84-6.33.69-8.48,8.23-6.99,19.57-19.11,26.83-37.1,8.4-20.83,7.61-39.9,5.46-52.24-.57-3.27,1.62-6.39,4.89-6.95,3.28-.57,6.39,1.62,6.95,4.9,2.41,13.87,3.3,35.34-6.16,58.79-6.47,16.05-16.91,30.49-30.2,41.77-1.13.96-2.51,1.43-3.89,1.43Z"/>
  <path class="cls-1" d="M232.11,385.92c-19.98,0-48.77-4.54-71.34-26.44-2.38-2.31-2.44-6.12-.13-8.5s6.12-2.44,8.5-.13c29.33,28.46,72.73,23.01,81.14,21.63,3.27-.54,6.37,1.68,6.91,4.96.54,3.28-1.68,6.37-4.96,6.91-4.07.67-11.23,1.57-20.13,1.57Z"/>
</svg>