<?xml version="1.0" encoding="UTF-8"?>
<svg id="Layer_1" data-name="Layer 1" xmlns="http://www.w3.org/2000/svg" viewBox="0 0 500 500">
  <defs>
    <style>
      .cls-1 {
        fill: none;
        stroke: #ce7;
        stroke-linecap: round;
        stroke-linejoin: round;
        stroke-width: 10px;
      }
    </style>
  </defs>
  <path class="cls-1" d="M49.58,264.23c24.7,0,24.7,20,49.41,20s24.7-20,49.41-20,24.7,20,49.41,20,24.7-20,49.41-20,24.7,20,49.41,20,24.7-20,49.41-20,24.71,20,49.41,20,24.71-20,49.41-20"/>
  <path class="cls-1" d="M347.4,264.25c-.44,0-.89-.02-1.35-.02-24.7,0-24.7,20-49.41,20s-24.7-20-49.41-20c-1.97,0-3.77.13-5.45.36-19.41,2.7-21.22,19.64-43.95,19.64-24.71,0-24.71-20-49.41-20s-24.7,20-49.41,20c-17.3,0-22.48-9.81-32.52-15.69,25.69-52.21,79.43-88.13,141.56-88.13,38.07,0,72.99,13.49,100.24,35.96"/>
  <path class="cls-1" d="M426.29,268.77c-9.79,5.9-15.07,15.46-32.15,15.46-24.24,0-24.69-19.26-48.06-19.98-.44,0-.89-.02-1.35-.02-24.7,0-24.7,20-49.41,20s-24.7-20-49.41-20c-1.97,0-3.77.13-5.45.36,14.71-23.84,38.48-41.51,66.51-48.22,8.08-1.93,16.51-2.96,25.18-2.96,40.49,0,75.76,22.34,94.14,55.36Z"/>
  <path class="cls-1" d="M49.58,314.59c24.7,0,24.7,20,49.41,20s24.7-20,49.41-20,24.7,20,49.41,20,24.7-20,49.41-20,24.7,20,49.41,20,24.7-20,49.41-20,24.71,20,49.41,20,24.71-20,49.41-20"/>
</svg>