<?xml version="1.0" encoding="UTF-8"?>
<svg id="Layer_1" data-name="Layer 1" xmlns="http://www.w3.org/2000/svg" viewBox="0 0 500 500">
  <defs>
    <style>
      .cls-1 {
        fill: none;
        stroke: #ce7;
        stroke-linecap: round;
        stroke-linejoin: round;
        stroke-width: 10px;
      }
    </style>
  </defs>
  <path class="cls-1" d="M209.04,107.52c-.33,18.74,1.26,46.23,11.62,76.94,13.08,38.77,30.01,52.65,41.33,80.07,10.74,26.01,17.34,66.41-3.87,127.95"/>
  <path class="cls-1" d="M306.49,129.38c2.02,9.37,3.58,23.63-.79,39.65-11.9,43.62-56.83,60.2-62.23,62.09"/>
  <path class="cls-1" d="M272.05,318.13c9.3-1.11,40.42-5.98,66.16-32.51,30.72-31.66,31.03-70.7,30.93-78.51"/>
  <path class="cls-1" d="M129.64,155.55c-.85,21.47,1.42,52.88,20.62,80.1,20.82,29.52,45.67,31.61,70.58,58.69,15.44,16.78,33.33,45.8,37.27,98.14"/>
  <path class="cls-1" d="M96.33,222.17c2.33,10.35,7.75,26.76,21.41,41.24,35.75,37.88,92.99,25.45,96.78,24.56"/>
  <path class="cls-1" d="M264.79,128.88c-1.03,7.11-1.56,16.35,0,26.9,3.45,23.37,15.11,39.61,21.59,47.35"/>
  <path class="cls-1" d="M324.98,241.3c.25,3.86.99,8.71,2.88,14.01,4.35,12.14,12.27,19.65,16.65,23.21"/>
  <path class="cls-1" d="M403.67,211.64c-1.17,5.09-3.54,12.21-8.65,19.36-11.93,16.72-29.94,21.23-35.3,22.37"/>
  <path class="cls-1" d="M171.15,152.21c1.25,7.21,3.19,24.16-4.53,43.3-6.49,16.1-16.71,26.06-22.24,30.76"/>
  <path class="cls-1" d="M250.99,350.47c-5.52.91-42.1,6.33-67.31-18.13"/>
</svg>