<?xml version="1.0" encoding="UTF-8"?>
<svg id="Layer_1" data-name="Layer 1" xmlns="http://www.w3.org/2000/svg" viewBox="0 0 500 500">
  <defs>
    <style>
      .cls-1 {
        fill: none;
        stroke: #ce7;
        stroke-linecap: round;
        stroke-linejoin: round;
        stroke-width: 10px;
      }
    </style>
  </defs>
  <path class="cls-1" d="M447.64,193.1c-21.11,0-39.55-11.47-49.41-28.52-9.86,17.06-28.3,28.52-49.41,28.52s-39.55-11.47-49.41-28.52c-9.86,17.06-28.3,28.52-49.41,28.52s-39.55-11.47-49.41-28.52c-9.86,17.06-28.3,28.52-49.41,28.52s-39.55-11.47-49.41-28.52c-9.86,17.06-28.3,28.52-49.41,28.52"/>
  <path class="cls-1" d="M447.64,267.63c-21.11,0-39.55-11.47-49.41-28.52-9.86,17.06-28.3,28.52-49.41,28.52s-39.55-11.47-49.41-28.52c-9.86,17.06-28.3,28.52-49.41,28.52s-39.55-11.47-49.41-28.52c-9.86,17.06-28.3,28.52-49.41,28.52s-39.55-11.47-49.41-28.52c-9.86,17.06-28.3,28.52-49.41,28.52"/>
  <path class="cls-1" d="M447.64,342.16c-21.11,0-39.55-11.47-49.41-28.52-9.86,17.06-28.3,28.52-49.41,28.52s-39.55-11.47-49.41-28.52c-9.86,17.06-28.3,28.52-49.41,28.52s-39.55-11.47-49.41-28.52c-9.86,17.06-28.3,28.52-49.41,28.52s-39.55-11.47-49.41-28.52c-9.86,17.06-28.3,28.52-49.41,28.52"/>
</svg>