<?xml version="1.0" encoding="UTF-8"?>
<svg id="Layer_1" data-name="Layer 1" xmlns="http://www.w3.org/2000/svg" viewBox="0 0 500 500">
  <defs>
    <style>
      .cls-1 {
        fill: none;
        stroke: #ce7;
        stroke-linecap: round;
        stroke-linejoin: round;
        stroke-width: 10px;
      }
    </style>
  </defs>
  <path class="cls-1" d="M90.34,316.79c-1.35-.44-3.36-1.21-5.6-2.5-3.06-1.77-11.5-6.57-11.4-13.31.08-5.5,5.87-10,7.4-10.8,4.1-2.12,8.77-2.91,13.04-4.66,16.16-6.59,24.03-25.26,38.79-34.58,8.84-5.57,19.78-7.53,27.85-14.17,8.77-7.21,12.66-18.71,15.29-29.76s4.54-22.63,10.73-32.15c6.19-9.53,18.25-16.44,28.94-12.64,5.92,2.1,10.39,7.01,16,9.81,10.5,5.22,15.36,1.71,22.39,6.09,1.87,1.17,3.97,2.9,5.97,5.58h.01c5.37-.44,13.26-1.79,21.34-6.31,13.54-7.57,9.33-16.38,21.97-16.9,18.01-.73,10.33,16.97,29.68,27.85,10.08,5.66,15.51,4.1,19.31,10.45,4.92,8.22-1.86,14.76,3.38,24.2,1.5,2.7,3.23,4.3,5.03,5.65l.63.22c3.15-1.43,10.29-4.13,19.39-2.97,3.14.4,11.87.56,17.37,7.29,4.42,5.42,3.62,7.2,9.62,14.86,6.53,8.34,9.9,7.31,13.83,13.5,4.31,6.81,1.41,9.88,3.88,22.61.88,4.56,1.9,8.05,2.91,10.9,3.19,8.94,4.01,12.58,5.73,18.3,1.06,3.5,2.39,8.33,3.65,14.29h-154.12"/>
  <path class="cls-1" d="M287.29,341.06H62.53c4.09-11.36,9.73-18.9,13.3-20.55,2.09-.96,3.74-1.37,3.74-1.37,3.3-.81,5.38-.18,10.23-2.12,8.22-3.29,9.29-7.93,17.46-13.47,7.75-5.25,11.08-3.99,18.46-7.48,17.33-8.2,14.06-22.29,30.93-34.43,3.35-2.41,20.96-14.43,34.43-8.48,11.97,5.29,9.42,19.81,24.44,26.94,8.42,3.99,11.92.72,19.46,5.99,8.37,5.83,6.24,11.36,14.47,17.96,8.52,6.82,13.13,2.77,22.95,9.48,8.86,6.04,12.54,17.31,13.97,22.95.41,1.62.71,3.16.92,4.58Z"/>
</svg>