<?xml version="1.0" encoding="UTF-8"?>
<svg id="Camada_1" data-name="Camada 1" xmlns="http://www.w3.org/2000/svg" viewBox="0 0 500 500">
  <defs>
    <style>
      .cls-1 {
        fill: #fff;
        stroke-width: 0px;
      }
    </style>
  </defs>
  <path class="cls-1" d="M408.96,380.11H91.04c-10.63,0-19.25-8.62-19.25-19.25v-123.91c0-10.63,8.62-19.25,19.25-19.25s19.25,8.62,19.25,19.25v104.66h279.42v-183.23h-245.68l110.86,110.86,91.55-91.55c7.52-7.52,19.7-7.52,27.22,0,7.52,7.52,7.52,19.7,0,27.22l-105.16,105.16c-7.52,7.52-19.7,7.52-27.22,0L83.95,152.75c-5.5-5.51-7.15-13.78-4.17-20.98,2.98-7.19,10-11.88,17.78-11.88h311.4c10.63,0,19.25,8.62,19.25,19.25v221.73c0,10.63-8.62,19.25-19.25,19.25Z"/>
</svg>