<?xml version="1.0" encoding="UTF-8"?>
<svg id="Camada_1" data-name="Camada 1" xmlns="http://www.w3.org/2000/svg" viewBox="0 0 500 500">
  <defs>
    <style>
      .cls-1 {
        fill: #fff;
        stroke-width: 0px;
      }
    </style>
  </defs>
  <circle class="cls-1" cx="148.46" cy="145.38" r="36.92"/>
  <rect class="cls-1" x="117.69" y="206.92" width="61.54" height="184.62" rx="2.75" ry="2.75"/>
  <path class="cls-1" d="M388.47,274.62v104.62c0,6.77-5.54,12.31-12.31,12.31h-36.92c-6.77,0-12.31-5.54-12.31-12.31v-86.16c0-16.99-13.78-30.77-30.77-30.77s-30.77,13.78-30.77,30.77v86.16c0,6.77-5.54,12.31-12.31,12.31h-36.92c-6.77,0-12.31-5.54-12.31-12.31v-160c0-6.77,5.54-12.31,12.31-12.31h36.92c6.77,0,12.31,5.54,12.31,12.31v7.88c12.31-15.94,32.68-26.34,55.39-26.34,33.97,0,67.69,24.62,67.69,73.85Z"/>
</svg>