<?xml version="1.0" encoding="UTF-8"?>
<svg id="Camada_1" data-name="Camada 1" xmlns="http://www.w3.org/2000/svg" viewBox="0 0 500 500">
  <defs>
    <style>
      .cls-1 {
        fill: #fff;
        stroke-width: 0px;
      }
    </style>
  </defs>
  <path class="cls-1" d="M349.46,227.76l-4.78,38.35c-.8,6.41-6.23,11.23-12.66,11.23h-62.12v160.35c-6.56.59-13.19.89-19.9.89-15,0-29.66-1.5-43.81-4.36v-156.89h-47.78c-4.38,0-7.96-3.6-7.96-7.99v-47.99c0-4.39,3.58-7.99,7.96-7.99h47.78v-71.98c0-44.17,35.66-79.97,79.65-79.97h55.74c4.38,0,7.96,3.6,7.96,7.99v47.99c0,4.39-3.58,7.99-7.96,7.99h-39.82c-17.59,0-31.85,14.32-31.85,31.99v55.98h66.89c7.68,0,13.61,6.76,12.66,14.4Z"/>
</svg>