<?xml version="1.0" encoding="UTF-8"?>
<svg id="Camada_1" data-name="Camada 1" xmlns="http://www.w3.org/2000/svg" viewBox="0 0 500 500">
  <defs>
    <style>
      .cls-1 {
        fill: #c2ee63;
        stroke-width: 0px;
      }
    </style>
  </defs>
  <path class="cls-1" d="M298.85,318.24l-83.86,83.86c-32.28,32.28-84.81,32.28-117.09,0-32.28-32.28-32.28-84.81,0-117.09l33.62-33.62c7.65-7.65,20.04-7.65,27.69,0,7.65,7.65,7.65,20.04,0,27.69l-33.62,33.62c-17.01,17.01-17.01,44.7,0,61.71,17.01,17.01,44.7,17.01,61.71,0l83.86-83.86c17.01-17.01,17.01-44.7,0-61.71-7.65-7.65-7.65-20.04,0-27.69,7.65-7.65,20.04-7.65,27.69,0,32.28,32.28,32.28,84.81,0,117.09Z"/>
  <path class="cls-1" d="M402.1,214.99l-28.09,28.09c-7.65,7.65-20.04,7.65-27.69,0-7.65-7.65-7.65-20.04,0-27.69l28.09-28.09c17.01-17.01,17.01-44.7,0-61.71-17.01-17.01-44.7-17.01-61.71,0l-83.86,83.86c-17.01,17.01-17.01,44.7,0,61.71,7.65,7.65,7.65,20.04,0,27.69-7.65,7.65-20.04,7.65-27.69,0-32.28-32.28-32.28-84.81,0-117.09l83.86-83.86c32.28-32.28,84.81-32.28,117.09,0,32.28,32.28,32.28,84.81,0,117.09Z"/>
</svg>