<?xml version="1.0" encoding="UTF-8"?>
<svg id="Camada_1" data-name="Camada 1" xmlns="http://www.w3.org/2000/svg" viewBox="0 0 500 500">
  <defs>
    <style>
      .cls-1 {
        fill: #fff;
        stroke-width: 0px;
      }
    </style>
  </defs>
  <path class="cls-1" d="M244.27,77.92c-88.6,2.88-161.78,74.64-166.22,163.17-1.6,31.91,5.44,62.09,19.13,88.29l-19.24,86.14c-.81,3.9,2.64,7.35,6.54,6.54l86.14-19.24h.06c26.01,13.59,55.87,20.63,87.55,19.16,88.4-4.09,160.39-76.72,163.81-165.15,3.87-100.15-77.76-182.16-177.78-178.92ZM250,386.55c-25.05,0-48.51-6.77-68.69-18.58-1.9-1.07-3.74-2.2-5.52-3.38l-55.04,14.66,14.66-55.04c-13.89-21.37-21.97-46.84-21.97-74.21,0-75.28,61.27-136.55,136.55-136.55s136.55,61.27,136.55,136.55-61.27,136.55-136.55,136.55Z"/>
  <path class="cls-1" d="M330.98,310.11c-2.38,3.57-4.88,6.9-8.87,10.89-8.75,8.75-20.89,13.16-33.22,11.91-22.08-2.26-53.45-14.46-80.42-41.37-26.96-26.97-39.17-58.34-41.37-80.42-1.25-12.32,3.16-24.47,11.91-33.22,3.99-3.99,7.32-6.49,10.89-8.93,6.61-4.46,15.6-1.49,18.1,6.01l9.05,27.14c2.5,7.44,1.37,12.14-1.85,15.3l-7.21,7.27c-3.57,3.57-4.17,9.11-1.43,13.39,3.99,6.25,11.49,16.25,25.3,30.06,13.81,13.81,23.81,21.31,30.06,25.3,4.29,2.74,9.82,2.14,13.39-1.43l7.27-7.21c3.16-3.21,7.86-4.35,15.3-1.85l27.14,9.05c7.5,2.5,10.48,11.49,5.95,18.1Z"/>
</svg>