<?xml version="1.0" encoding="utf-8"?>
<!-- Generator: Adobe Illustrator 28.1.0, SVG Export Plug-In . SVG Version: 6.00 Build 0)  -->
<svg version="1.1" id="Camada_1" xmlns="http://www.w3.org/2000/svg" xmlns:xlink="http://www.w3.org/1999/xlink" x="0px" y="0px"
	 viewBox="0 0 500 500" style="enable-background:new 0 0 500 500;" xml:space="preserve">
<style type="text/css">
	.st0{fill:#FFFFFF;}
</style>
<g>
	<path class="st0" d="M271.2,201.1c-7.6,7.7-7.6,20,0,27.7c17,17,17,44.7,0,61.7l-83.9,83.9c-17,17-44.7,17-61.7,0s-17-44.7,0-61.7
		l33.6-33.6c7.6-7.6,7.6-20,0-27.7c-7.7-7.6-20-7.6-27.7,0L97.9,285c-32.3,32.3-32.3,84.8,0,117.1c32.3,32.3,84.8,32.3,117.1,0
		l83.9-83.9c32.3-32.3,32.3-84.8,0-117.1C291.2,193.5,278.8,193.5,271.2,201.1z"/>
	<path class="st0" d="M402.1,97.9c-32.3-32.3-84.8-32.3-117.1,0l-83.9,83.9c-32.3,32.3-32.3,84.8,0,117.1c7.7,7.7,20,7.7,27.7,0
		c7.6-7.6,7.6-20,0-27.7c-17-17-17-44.7,0-61.7l83.9-83.9c17-17,44.7-17,61.7,0c17,17,17,44.7,0,61.7l-28.1,28.1
		c-7.6,7.6-7.6,20,0,27.7c7.7,7.6,20,7.6,27.7,0l28.1-28.1C434.4,182.7,434.4,130.2,402.1,97.9z"/>
</g>
</svg>
