<?xml version="1.0" encoding="UTF-8"?>
<svg id="Layer_1" data-name="Layer 1" xmlns="http://www.w3.org/2000/svg" viewBox="0 0 500 500">
  <defs>
    <style>
      .cls-1 {
        fill: #ce7;
        stroke-width: 0px;
      }
    </style>
  </defs>
  <path class="cls-1" d="M248.46,493.61c-3.24,0-5.87-2.63-5.87-5.87V100.68c0-3.24,2.63-5.87,5.87-5.87s5.87,2.63,5.87,5.87v387.06c0,3.24-2.63,5.87-5.87,5.87Z"/>
  <path class="cls-1" d="M335.03,493.61c-3.24,0-5.87-2.63-5.87-5.87,0-45-36.61-81.62-81.62-81.62s-81.62,36.61-81.62,81.62c0,3.24-2.63,5.87-5.87,5.87s-5.87-2.63-5.87-5.87c0-51.48,41.88-93.35,93.35-93.35s93.35,41.88,93.35,93.35c0,3.24-2.63,5.87-5.87,5.87Z"/>
  <path class="cls-1" d="M293.44,493.61c-3.24,0-5.87-2.63-5.87-5.87,0-44.24-18.33-81.62-40.02-81.62-3.24,0-5.87-2.63-5.87-5.87s2.63-5.87,5.87-5.87c29.03,0,51.76,41.01,51.76,93.35,0,3.24-2.63,5.87-5.87,5.87Z"/>
  <path class="cls-1" d="M202.35,493.61c-3.24,0-5.87-2.63-5.87-5.87,0-52.35,22.74-93.35,51.76-93.35,3.24,0,5.87,2.63,5.87,5.87s-2.63,5.87-5.87,5.87c-21.7,0-40.02,37.38-40.02,81.62,0,3.24-2.63,5.87-5.87,5.87Z"/>
  <path class="cls-1" d="M248.46,276.47c-68.15,0-123.59-60.76-123.59-135.44S180.32,5.59,248.46,5.59s123.59,60.76,123.59,135.44-55.44,135.44-123.59,135.44ZM248.46,17.33c-61.67,0-111.85,55.49-111.85,123.7s50.18,123.7,111.85,123.7,111.85-55.49,111.85-123.7-50.18-123.7-111.85-123.7Z"/>
  <path class="cls-1" d="M247.55,197.26c-1.55,0-3.09-.61-4.24-1.81l-55.25-57.82c-2.24-2.34-2.16-6.06.19-8.3,2.34-2.24,6.06-2.16,8.3.19l55.25,57.82c2.24,2.34,2.16,6.06-.19,8.3-1.14,1.09-2.6,1.63-4.05,1.63Z"/>
  <path class="cls-1" d="M248.46,236.43c-1.44,0-2.88-.53-4.01-1.59-2.37-2.22-2.49-5.93-.27-8.3l43.27-46.18c2.22-2.37,5.93-2.49,8.3-.27,2.37,2.22,2.49,5.93.27,8.3l-43.27,46.18c-1.16,1.23-2.72,1.86-4.28,1.86Z"/>
</svg>