<?xml version="1.0" encoding="UTF-8"?>
<svg id="Layer_1" data-name="Layer 1" xmlns="http://www.w3.org/2000/svg" viewBox="0 0 500 500">
  <defs>
    <style>
      .cls-1 {
        fill: #ce7;
        stroke-width: 0px;
      }
    </style>
  </defs>
  <path class="cls-1" d="M434.17,288.54c-17.2,0-26.09-7.2-33.94-13.55-7.28-5.9-13.57-10.99-26.7-10.99s-19.41,5.09-26.69,10.99c-7.85,6.35-16.74,13.55-33.93,13.55s-26.09-7.2-33.94-13.55c-7.28-5.9-13.57-10.99-26.69-10.99s-19.41,5.09-26.69,10.99c-7.85,6.35-16.74,13.55-33.93,13.55s-26.09-7.2-33.93-13.55c-7.28-5.9-13.57-10.99-26.69-10.99s-19.41,5.09-26.69,10.99c-7.85,6.35-16.74,13.55-33.94,13.55s-26.09-7.2-33.93-13.55c-7.28-5.9-13.57-10.99-26.69-10.99-3.18,0-5.76-2.58-5.76-5.76s2.58-5.76,5.76-5.76c17.19,0,26.09,7.2,33.93,13.55,7.28,5.9,13.57,10.99,26.69,10.99s19.41-5.09,26.69-10.99c7.85-6.35,16.74-13.55,33.93-13.55s26.09,7.2,33.93,13.55c7.28,5.9,13.57,10.99,26.69,10.99s19.41-5.09,26.69-10.99c7.85-6.35,16.74-13.55,33.93-13.55s26.09,7.2,33.94,13.55c7.28,5.9,13.57,10.99,26.69,10.99s19.41-5.09,26.69-10.99c7.85-6.35,16.74-13.55,33.93-13.55s26.09,7.2,33.94,13.55c7.28,5.9,13.57,10.99,26.69,10.99s19.41-5.09,26.7-10.99c7.85-6.35,16.74-13.55,33.94-13.55,3.18,0,5.76,2.58,5.76,5.76s-2.58,5.76-5.76,5.76c-13.12,0-19.41,5.09-26.7,10.99-7.85,6.35-16.74,13.55-33.94,13.55Z"/>
  <path class="cls-1" d="M312.95,288.53c-17.19,0-26.08-7.2-33.93-13.55-7.28-5.9-13.58-10.99-26.7-10.99-2.06,0-3.99.13-5.91.39-9.28,1.29-14.61,5.61-20.78,10.6-7.84,6.35-16.74,13.55-33.92,13.55s-26.09-7.2-33.94-13.55c-7.28-5.89-13.57-10.99-26.69-10.99s-19.4,5.09-26.69,10.99c-7.85,6.35-16.74,13.55-33.94,13.55s-26.08-7.2-33.93-13.55c-2.95-2.39-5.74-4.64-8.88-6.49-2.6-1.52-3.59-4.8-2.26-7.51,16.19-32.9,41.14-60.71,72.16-80.41,31.87-20.24,68.77-30.94,106.7-30.94,46.14,0,91.12,16.14,126.66,45.44,2.45,2.02,2.8,5.65.78,8.1-2.02,2.45-5.65,2.8-8.1.78-33.48-27.61-75.86-42.81-119.34-42.81-35.75,0-70.51,10.08-100.53,29.15-27.8,17.66-50.43,42.22-65.71,71.26,2.03,1.47,3.91,2.99,5.76,4.49,7.28,5.9,13.57,10.99,26.68,10.99s19.42-5.09,26.7-10.99c7.85-6.35,16.74-13.55,33.93-13.55s26.08,7.2,33.93,13.55c7.28,5.9,13.58,10.99,26.7,10.99s19.4-5.09,26.68-10.99c6.56-5.31,13.99-11.33,26.45-13.06,2.45-.34,4.89-.5,7.48-.5,17.2,0,26.09,7.2,33.94,13.55,7.28,5.9,13.57,10.99,26.69,10.99s19.42-5.09,26.7-10.99c7.85-6.35,16.74-13.55,33.93-13.55.57,0,1.13.01,1.68.02,3.18.07,5.75,2.7,5.68,5.88-.07,3.18-2.66,5.64-5.83,5.63h-.1c-.47-.01-.94-.02-1.43-.02-13.12,0-19.4,5.09-26.69,10.99-7.85,6.35-16.74,13.55-33.94,13.55Z"/>
  <path class="cls-1" d="M432.58,288.53c-17.19,0-26.08-7.2-33.93-13.55-7.02-5.69-13.09-10.6-25.22-10.97-.51-.01-.99-.02-1.48-.02-13.11,0-19.4,5.09-26.69,10.99-7.85,6.35-16.74,13.55-33.94,13.55s-26.08-7.2-33.93-13.55c-7.28-5.9-13.58-10.99-26.7-10.99-2.06,0-3.99.13-5.91.39-2.2.31-4.39-.7-5.6-2.56s-1.24-4.27-.07-6.16c19.03-30.84,50.07-53.34,85.17-61.74,10.53-2.52,21.37-3.79,32.24-3.79,50.02,0,96.2,27.16,120.54,70.88,1.51,2.71.6,6.13-2.06,7.73-2.98,1.8-5.65,3.96-8.48,6.24-7.85,6.35-16.75,13.55-33.94,13.55ZM371.95,252.48c.57,0,1.14.01,1.69.02.02,0,.13,0,.15,0,16,.49,24.56,7.42,32.11,13.53,7.28,5.89,13.57,10.99,26.69,10.99s19.42-5.09,26.7-10.99c1.63-1.32,3.29-2.67,5.06-3.97-22.91-37.4-63.75-60.42-107.83-60.42-9.96,0-19.91,1.17-29.56,3.47-28.62,6.85-54.3,23.94-71.89,47.54,14.4,1.1,22.42,7.6,29.58,13.39,7.28,5.9,13.57,10.99,26.69,10.99s19.42-5.09,26.7-10.99c7.85-6.35,16.74-13.55,33.93-13.55Z"/>
  <path class="cls-1" d="M434.17,349.56c-17.1,0-25.97-6.74-33.8-12.68-7.31-5.55-13.62-10.34-26.84-10.34s-19.53,4.79-26.83,10.34c-7.83,5.94-16.7,12.68-33.79,12.68s-25.97-6.74-33.79-12.68c-7.3-5.55-13.61-10.34-26.83-10.34s-19.53,4.79-26.83,10.34c-7.83,5.95-16.7,12.68-33.79,12.68s-25.96-6.74-33.79-12.68c-7.3-5.55-13.61-10.34-26.83-10.34s-19.53,4.79-26.83,10.34c-7.83,5.94-16.7,12.68-33.79,12.68s-25.97-6.74-33.79-12.68c-7.3-5.55-13.61-10.34-26.83-10.34-3.18,0-5.76-2.58-5.76-5.76s2.58-5.76,5.76-5.76c17.09,0,25.96,6.74,33.79,12.68,7.3,5.55,13.61,10.34,26.83,10.34s19.53-4.79,26.83-10.34c7.83-5.94,16.7-12.68,33.79-12.68s25.97,6.74,33.79,12.68c7.3,5.55,13.61,10.34,26.83,10.34s19.53-4.79,26.83-10.34c7.83-5.94,16.7-12.68,33.79-12.68s25.97,6.74,33.79,12.68c7.3,5.55,13.61,10.34,26.83,10.34s19.53-4.79,26.83-10.34c7.83-5.94,16.7-12.68,33.79-12.68s25.97,6.74,33.8,12.68c7.31,5.55,13.61,10.34,26.84,10.34s19.53-4.79,26.84-10.34c7.83-5.94,16.7-12.68,33.8-12.68,3.18,0,5.76,2.58,5.76,5.76s-2.58,5.76-5.76,5.76c-13.22,0-19.53,4.79-26.84,10.34-7.83,5.94-16.7,12.68-33.8,12.68Z"/>
</svg>